<svg xmlns="http://www.w3.org/2000/svg" viewBox="0 0 30.05 19.46"><defs><style>.cls-1{fill:#fff;}</style></defs><title>Asset 1</title><g id="Layer_2" data-name="Layer 2"><g id="Layer_1-2" data-name="Layer 1"><path class="cls-1" d="M19,15.78H14.65c-.53,0-.61-.06-.78-.57-.71-2.16-1.43-4.32-2.13-6.48a.49.49,0,0,0-.55-.4c-2.78,0-5.55,0-8.33,0-.44,0-.48,0-.35.47.79,2.56,1.58,5.11,2.36,7.68a.38.38,0,0,0,.43.32H15.43c.19,0,.37,0,.56,0a.41.41,0,0,1,.41.42.42.42,0,0,1-.36.47,1.36,1.36,0,0,1-.31,0H4.86c-.49,0-.6-.08-.74-.53Q2.86,13.09,1.6,9A1.14,1.14,0,0,1,2.74,7.42h8.54a1.17,1.17,0,0,1,1.29.93l.26.79L13.19,9l2.5-1.31c.34-.18.59-.13.73.12s0,.52-.3.7L13.5,9.85l-.37.2.92,2.78c.19.57.39,1.13.56,1.71a.36.36,0,0,0,.41.31h4.32a.48.48,0,0,0,.29-.07,2.92,2.92,0,0,1,1.73-.58c.56-.05,1.11-.13,1.66-.2a1.59,1.59,0,0,0,.24-.08L22.48,13l-.35-.4c-.25-.29-.28-.58-.06-.77s.48-.16.75.14L24,13.41l.12.14a.49.49,0,0,0,.63.24.53.53,0,0,1,.19,0,.45.45,0,0,1,.49.41.45.45,0,0,1-.43.51L22.48,15l-1.6.2a1.11,1.11,0,0,0-1,.93c-.08.43.11.66.54.66h6.21c.45,0,.54-.11.56-.54a5.08,5.08,0,0,0-1.26-3.69c-.49-.57-.94-1.18-1.41-1.77A4.63,4.63,0,0,0,22,9.16L19.8,8.6c-.35-.09-.52-.32-.45-.59s.32-.4.67-.31c1,.26,1.93.48,2.87.79a4.87,4.87,0,0,1,2.28,1.61c.73.9,1.47,1.8,2.12,2.76a5.67,5.67,0,0,1,.84,3.63,1.29,1.29,0,0,1-1.3,1.22c-2.15,0-4.31,0-6.46,0A1.39,1.39,0,0,1,19,16C19,16,19,15.9,19,15.78Z"/><path class="cls-1" d="M15,19.46H.62C.22,19.46,0,19.3,0,19s.2-.46.6-.46h29a.41.41,0,0,1,.41.39.42.42,0,0,1-.33.49,1.28,1.28,0,0,1-.34,0Z"/><path class="cls-1" d="M17.88,7.55a3.79,3.79,0,0,1-3.77-3.78,3.78,3.78,0,1,1,7.56,0A3.76,3.76,0,0,1,17.88,7.55Zm0-.92a2.82,2.82,0,0,0,2.86-2.85A2.86,2.86,0,1,0,17.9,6.63Z"/><path class="cls-1" d="M13.09,3.35a2.15,2.15,0,0,1-.26.4q-1,.92-2,1.82a.45.45,0,0,1-.69,0,.48.48,0,0,1,.08-.69l2-1.81a.41.41,0,0,1,.53-.1A2.13,2.13,0,0,1,13.09,3.35Z"/><path class="cls-1" d="M4.71,5.78a2.79,2.79,0,0,1-.42-.24l-2-1.75a.49.49,0,0,1-.13-.71c.19-.23.46-.23.73,0l2,1.77c.16.15.29.33.17.54A2,2,0,0,1,4.71,5.78Z"/><path class="cls-1" d="M8,3c0,.4,0,.81,0,1.21a.45.45,0,0,1-.43.5.47.47,0,0,1-.48-.5q0-1.24,0-2.48a.45.45,0,0,1,.46-.48A.43.43,0,0,1,8,1.68C8,2.1,8,2.53,8,3Z"/></g></g></svg>