<svg xmlns="http://www.w3.org/2000/svg" viewBox="0 0 30.03 19.76"><defs><style>.cls-1{fill:#fff;}</style></defs><title>Asset 2</title><g id="Layer_2" data-name="Layer 2"><g id="Layer_1-2" data-name="Layer 1"><path class="cls-1" d="M16.75,11.94c-.68.2-1.3.37-1.91.57a2.58,2.58,0,0,1-1.71,0c-1.32-.45-2.65-.86-4-1.29a2,2,0,0,1-1.5-2.52.49.49,0,0,0-.2-.37Q4.62,6.38,1.77,4.47l-.38-.26C1.05,4,1,3.66,1.17,3.37A.56.56,0,0,1,2,3.28L4.36,4.84c1.27.86,2.55,1.71,3.82,2.58a.51.51,0,0,0,.58.05,2,2,0,0,1,1.52,0c1.12.37,2.24.74,3.37,1.08a1.5,1.5,0,0,0,.81,0c1.56-.45,3.11-.94,4.66-1.4a5.75,5.75,0,0,1,4.37.28A9.09,9.09,0,0,1,25,8.5c1.4,1.12,2.78,2.25,4.17,3.38a2,2,0,0,1,.46,2.9q-1.24,1.89-2.5,3.78a2,2,0,0,1-2.18.9,2,2,0,0,1-1.19-2.91,1.92,1.92,0,0,0,.27-1c0-.94,0-1.88,0-2.82a.63.63,0,0,1,.33-.67.65.65,0,0,1,.73.16l1.33,1.09c.41.34.45.57.16,1-.55.85-1.11,1.7-1.66,2.55a1.93,1.93,0,0,0-.28.57.83.83,0,0,0,.5.93.81.81,0,0,0,1-.29l.15-.22,2.43-3.68a.85.85,0,0,0-.2-1.35c-1.58-1.28-3.17-2.54-4.73-3.84a4.28,4.28,0,0,0-4.18-.77c-1.68.48-3.35,1-5,1.53a1.47,1.47,0,0,1-1,0Q11.74,9.07,9.88,8.5a1.14,1.14,0,0,0-.62,0,.75.75,0,0,0-.55.78.8.8,0,0,0,.6.79c1.18.38,2.38.72,3.54,1.16a3,3,0,0,0,2.31,0,18.8,18.8,0,0,1,1.89-.57.58.58,0,0,1,.82.63q0,3.89,0,7.77c0,.44-.24.71-.58.7s-.54-.25-.54-.69q0-3.26,0-6.51C16.75,12.37,16.75,12.19,16.75,11.94Z"/><path class="cls-1" d="M24.15,3.22A3.2,3.2,0,1,1,21,0,3.21,3.21,0,0,1,24.15,3.22ZM21,5.28a2,2,0,0,0,2-2.1,2.06,2.06,0,0,0-2.1-2.05,2.08,2.08,0,0,0-2.05,2.11A2.06,2.06,0,0,0,21,5.28Z"/><path class="cls-1" d="M7.08,1.15H.87c-.14,0-.32,0-.41,0S.06.81,0,.63.2.23.35.09.63,0,.78,0h12.6c.15,0,.35,0,.44.08a.92.92,0,0,1,.3.58c0,.16-.25.34-.43.44s-.3,0-.45,0Z"/><path class="cls-1" d="M4.63,13.84H8.74a.55.55,0,0,1,.11,1.07,1.49,1.49,0,0,1-.41,0H.56a.57.57,0,0,1-.55-.6.54.54,0,0,1,.59-.52h4Z"/><path class="cls-1" d="M3.22,11.21c-.88,0-1.75,0-2.63,0A.55.55,0,0,1,0,10.65a.59.59,0,0,1,.61-.56H5.86a.56.56,0,0,1,.57.55.55.55,0,0,1-.59.57c-.66,0-1.32,0-2,0H3.22Z"/><path class="cls-1" d="M8.77,4.27h-2c-.41,0-.64-.19-.66-.53a.57.57,0,0,1,.64-.6h4c.42,0,.66.23.65.58s-.23.54-.67.55h-2Z"/><path class="cls-1" d="M1.71,7.94c-.37,0-.73,0-1.1,0a.56.56,0,1,1,0-1.12c.77,0,1.54,0,2.32,0a.54.54,0,0,1,.57.55.55.55,0,0,1-.58.56C2.49,7.95,2.1,7.94,1.71,7.94Z"/></g></g></svg>