<svg xmlns="http://www.w3.org/2000/svg" viewBox="0 0 19.52 19.52"><defs><style>.cls-1{fill:#fff;}</style></defs><title>Asset 4</title><g id="Layer_2" data-name="Layer 2"><g id="Layer_1-2" data-name="Layer 1"><path class="cls-1" d="M3,6.07c0-.63,0-1.22,0-1.81A4.58,4.58,0,0,1,6.33.13a3.83,3.83,0,0,1,3.76,1,4.87,4.87,0,0,1,1.5,3.59c0,.43,0,.86,0,1.32h2.64c.29,0,.37.08.37.37,0,.73,0,1.47,0,2.2,0,.08,0,.16,0,.25a4.6,4.6,0,0,1,1.8.24,4.63,4.63,0,0,1-.56,8.9,9.93,9.93,0,0,1-1.15.09.2.2,0,0,0-.15.1,1.87,1.87,0,0,1-1.89,1.31H2.38A2.31,2.31,0,0,1,.09,17.84,2.47,2.47,0,0,1,0,17.2Q0,11.84,0,6.48c0-.34.07-.41.42-.41H3Zm-2.45.6v.22q0,5.13,0,10.27a1.94,1.94,0,0,0,0,.41,1.71,1.71,0,0,0,1.75,1.36H12.67a1.42,1.42,0,0,0,1-.3A1,1,0,0,0,14,18l-.2-.05a4.6,4.6,0,0,1-3.4-5.29A4.53,4.53,0,0,1,13.83,9C14,9,14,8.93,14,8.78c0-.65,0-1.3,0-1.94,0-.06,0-.11,0-.17H11.6a2.55,2.55,0,0,1,0,.3c0,.17,0,.26.21.33a1.11,1.11,0,0,1,.6,1.35,1.15,1.15,0,0,1-1.18.81,1.19,1.19,0,0,1-1.06-1,1.13,1.13,0,0,1,.71-1.23c.05,0,.13-.07.13-.11s0-.32,0-.47H3.6A2.4,2.4,0,0,1,3.6,7c0,.17,0,.25.2.32a1.12,1.12,0,0,1,.63,1.26,1.15,1.15,0,0,1-1.13.91,1.19,1.19,0,0,1-1.12-.93,1.13,1.13,0,0,1,.7-1.28c.05,0,.12-.07.12-.12s0-.31,0-.47Zm3-.62H11c0-.42,0-.83,0-1.23A4.54,4.54,0,0,0,10,1.9a3.43,3.43,0,0,0-5.35,0A5.55,5.55,0,0,0,3.63,6.05Zm15.3,7.44a4,4,0,1,0-4.06,4A4,4,0,0,0,18.92,13.5ZM3.32,7.76a.51.51,0,0,0-.55.49.57.57,0,1,0,1.13.06A.57.57,0,0,0,3.32,7.76Zm8,0a.52.52,0,0,0-.53.54.55.55,0,0,0,.56.58.57.57,0,0,0,.56-.56A.56.56,0,0,0,11.27,7.76Z"/><path class="cls-1" d="M6.22,16.95h4.2c.23,0,.34.07.36.24s-.09.34-.32.34H2c-.24,0-.35-.08-.37-.26S1.73,17,2,17H6.22Z"/><path class="cls-1" d="M5.61,12H2c-.25,0-.35-.08-.37-.26s.1-.33.36-.33h7.2c.28,0,.39.07.42.25s-.09.34-.33.34H5.61Z"/><path class="cls-1" d="M5.63,15.09H9.23c.26,0,.37.08.38.27s-.1.32-.33.32H1.94c-.21,0-.31-.12-.31-.3s.11-.29.32-.29H5.63Z"/><path class="cls-1" d="M5.47,13.25H8.95c.23,0,.35.08.37.26s-.11.33-.36.33h-7a.3.3,0,0,1-.28-.32.27.27,0,0,1,.3-.27H5.47Z"/><path class="cls-1" d="M17.1,16a.32.32,0,0,1-.5.26l-1.52-.81a.31.31,0,0,0-.34,0l-1.47.78a.37.37,0,0,1-.44,0c-.14-.1-.12-.24-.09-.39.1-.54.18-1.08.28-1.62a.34.34,0,0,0-.11-.34c-.42-.4-.82-.8-1.24-1.2a.32.32,0,0,1-.12-.35c0-.14.16-.19.3-.21l1.71-.26a.3.3,0,0,0,.26-.19l.77-1.54a.32.32,0,0,1,.61,0c.26.52.52,1,.78,1.56a.27.27,0,0,0,.23.17l1.73.26c.14,0,.25.06.3.21a.34.34,0,0,1-.12.37c-.4.38-.78.77-1.18,1.15a.35.35,0,0,0-.11.36c.1.57.2,1.15.29,1.72Zm-2.21-5,0,0-.44.87c-.32.65-.23.53-.91.63l-1,.14c.26.28.5.58.78.84a.67.67,0,0,1,.26.82.93.93,0,0,0,0,.19l-.17,1,1.28-.67a.43.43,0,0,1,.44,0l.94.49.34.17c-.09-.49-.16-.94-.25-1.38a.46.46,0,0,1,.14-.46l.8-.78a1.89,1.89,0,0,1,.21-.15l0-.07c-.44-.06-.88-.13-1.32-.18a.48.48,0,0,1-.45-.31C15.3,11.77,15.09,11.38,14.89,11Z"/></g></g></svg>