<svg xmlns="http://www.w3.org/2000/svg" viewBox="0 0 19.52 19.51"><defs><style>.cls-1{fill:#fff;}</style></defs><title>Asset 5</title><g id="Layer_2" data-name="Layer 2"><g id="Layer_1-2" data-name="Layer 1"><path class="cls-1" d="M0,.34C.18,0,.3,0,.67,0L5.09.57,7.54.87A.48.48,0,0,1,8,1.23a.42.42,0,0,1-.15.44c-.29.28-.56.57-.85.85-.11.11-.1.16,0,.27l5.85,5.85L14.16,10a1.5,1.5,0,0,1,0,2.19l-2,2a1.49,1.49,0,0,1-2.17,0L3.74,7.9a.44.44,0,0,1-.06-.67.42.42,0,0,1,.57-.05,1.52,1.52,0,0,1,.17.16q3.07,3.07,6.13,6.14a.72.72,0,0,0,1.11,0,1,1,0,0,0,.34-.81c0-1.15,0-2.3,0-3.45a.38.38,0,0,0-.13-.3l-1.05-1s-.07-.09-.13-.1,0,.12,0,.18c0,1.18,0,2.36,0,3.54,0,.31-.16.48-.44.48a.41.41,0,0,1-.44-.46c0-.72,0-1.45,0-2.17s0-1.58,0-2.36a.25.25,0,0,0-.06-.21l-1.2-1.2,0,0a.39.39,0,0,0,0,.21q0,1.76,0,3.53a.43.43,0,0,1-.54.48.42.42,0,0,1-.35-.47q0-1.46,0-2.92,0-.8,0-1.6a.26.26,0,0,0-.06-.21L6.26,3.34h0a.43.43,0,0,0,0,.2q0,1.75,0,3.51c0,.34-.22.54-.52.49a.41.41,0,0,1-.36-.46c0-.7,0-1.4,0-2.1s0-1.21,0-1.81a.53.53,0,0,1,.17-.42c.35-.34.69-.69,1.07-1.06L5.31,1.52,1.17,1C1,1,.92.94,1,1.16c.23,1.76.45,3.51.67,5.27,0,0,0,.09,0,.13s.11-.08.16-.13L4.08,4.16A.44.44,0,0,1,4.6,4a.43.43,0,0,1,.14.72c-.3.31-.61.61-.91.92L1.71,7.78a.49.49,0,0,1-.52.15.39.39,0,0,1-.31-.36Q.48,4.3.07,1A1.1,1.1,0,0,0,0,.64ZM12.87,9.95v2.21c.26-.24.53-.47.77-.74a.58.58,0,0,0,0-.72C13.39,10.45,13.14,10.21,12.87,9.95Z"/><path class="cls-1" d="M18.94,19.51a9.71,9.71,0,0,1-1.1-1.07.43.43,0,0,1,.61-.61c.33.31.66.64,1,1a.4.4,0,0,1-.06.59l-.15.11Z"/><path class="cls-1" d="M13.75,14.19a.43.43,0,0,1,.25-.4.4.4,0,0,1,.43,0l.12.1,2.58,2.59a.44.44,0,0,1-.18.77.45.45,0,0,1-.46-.17L14.42,15l-.51-.51A.45.45,0,0,1,13.75,14.19Z"/><path class="cls-1" d="M14.64,16.84a.44.44,0,0,1-.26.41.41.41,0,0,1-.5-.1l-.94-.94-.37-.38a.44.44,0,1,1,.63-.61l1.32,1.32A.42.42,0,0,1,14.64,16.84Z"/><path class="cls-1" d="M15.52,12.41a.44.44,0,0,1,.34.15l1.28,1.28a.44.44,0,1,1-.62.62l-1.29-1.29a.42.42,0,0,1-.1-.49A.43.43,0,0,1,15.52,12.41Z"/><path class="cls-1" d="M16,19.06a1.45,1.45,0,0,1-.88-.88.42.42,0,0,1,.24-.4.39.39,0,0,1,.46,0,7.09,7.09,0,0,1,.52.52.39.39,0,0,1,0,.46A.42.42,0,0,1,16,19.06Z"/><path class="cls-1" d="M18.13,15.08a1.38,1.38,0,0,1,.93.88.42.42,0,0,1-.25.39.39.39,0,0,1-.46-.05c-.18-.16-.35-.33-.51-.51a.39.39,0,0,1-.06-.46A.41.41,0,0,1,18.13,15.08Z"/></g></g></svg>