<svg xmlns="http://www.w3.org/2000/svg" viewBox="0 0 19.97 19.6"><defs><style>.cls-1{fill:#fff;}</style></defs><title>Asset 3</title><g id="Layer_2" data-name="Layer 2"><g id="Layer_1-2" data-name="Layer 1"><path class="cls-1" d="M3.4.53c0-.09,0-.14,0-.18,0-.27.22-.42.46-.31A3.54,3.54,0,0,0,5.45.31H8.63A1.57,1.57,0,0,1,10,.85c.08-.07.15-.15.23-.22a1.52,1.52,0,0,1,1-.32c1.27,0,2.54,0,3.81,0a3.73,3.73,0,0,0,1-.21c.42-.13.59,0,.59.45h.58c.45,0,.5.06.49.51,0,1.39,0,2.79,0,4.18q0,2.5,0,5c0,.31-.1.4-.4.4H2.71c-.29,0-.38-.1-.38-.42q0-4.36,0-8.73c0-.2,0-.41,0-.61A.28.28,0,0,1,2.64.53ZM4,.81C4,.86,4,.94,4,1Q4,4.73,4,8.45c0,.44.08.54.52.61H8.21a2.22,2.22,0,0,1,1.45.26c0-.07,0-.1,0-.13,0-2.51,0-5,0-7.52a.86.86,0,0,0-.17-.44A.85.85,0,0,0,8.75.91,46.67,46.67,0,0,1,4,.81Zm6.3,8.53a1.85,1.85,0,0,1,1.2-.27h3.69a1.88,1.88,0,0,0,.4,0c.31-.07.37-.15.37-.47Q16,4.76,16,1c0-.06,0-.13,0-.22a7,7,0,0,1-2.2.16c-.86,0-1.71,0-2.57,0a.88.88,0,0,0-.9.9c0,2.42,0,4.84,0,7.26ZM17,10V1.15h-.46c0,.09,0,.16,0,.23q0,3.67,0,7.34a.71.71,0,0,1-.32.64,1.74,1.74,0,0,1-.59.26,4,4,0,0,1-.79,0H11.17a.79.79,0,0,0-.68.33ZM2.95,1.15V10H9.49a.85.85,0,0,0-.68-.32c-1.37,0-2.75,0-4.12,0a2.09,2.09,0,0,1-.82-.2.8.8,0,0,1-.48-.8c0-2.41,0-4.83,0-7.24V1.15Z"/><path class="cls-1" d="M8,15.86H1.64A1.54,1.54,0,0,1,0,14.43a10.83,10.83,0,0,1,0-1.12Q0,9,0,4.71A1.55,1.55,0,0,1,1.23,3.14a1.42,1.42,0,0,1,.36,0,.27.27,0,0,1,.27.26.28.28,0,0,1-.21.31l-.14,0a1,1,0,0,0-.91,1q0,2.66,0,5.32c0,.92,0,1.84,0,2.75,0,.19.06.24.24.24H19.14c.19,0,.22-.06.22-.23,0-2.65,0-5.3,0-8a1.43,1.43,0,0,0-.08-.56.88.88,0,0,0-.8-.57h-.1a.29.29,0,0,1-.26-.33.29.29,0,0,1,.32-.26,1.54,1.54,0,0,1,1.5,1.32,8,8,0,0,1,0,.9q0,4.41,0,8.83a1.55,1.55,0,0,1-1.09,1.61,2.15,2.15,0,0,1-.62.08H12.41c-.29,0-.29,0-.29.29s0,.79,0,1.18A1.91,1.91,0,0,0,14,19h1.55a.32.32,0,0,1,.33.32.3.3,0,0,1-.33.28h-11c-.21,0-.34-.11-.35-.29A.32.32,0,0,1,4.53,19H6a1.92,1.92,0,0,0,2-1.89C8,16.69,8,16.28,8,15.86ZM.61,13.63c0,.24,0,.46,0,.67a.87.87,0,0,0,.48.8,1.37,1.37,0,0,0,.6.13H18.4a.92.92,0,0,0,.92-.68,6.78,6.78,0,0,0,.05-.92ZM12.37,19c-.16-.2-.31-.37-.44-.56a2.64,2.64,0,0,1-.41-1.49c0-.35,0-.7,0-1l-.07,0H8.72c-.11,0-.13.06-.13.15,0,.3,0,.6,0,.9a2.66,2.66,0,0,1-.44,1.56c-.12.18-.27.33-.41.52Z"/><path class="cls-1" d="M6.77,3.84H5.42c-.23,0-.36-.1-.36-.29s.13-.31.37-.31H8.08c.24,0,.37.11.37.31s-.13.29-.38.3Z"/><path class="cls-1" d="M6.75,5.51H5.43c-.24,0-.36-.1-.36-.29s.12-.31.36-.31H8.1c.23,0,.35.11.35.3s-.12.3-.35.3Z"/><path class="cls-1" d="M6.75,7.18H5.43c-.23,0-.36-.1-.36-.29s.12-.31.37-.31H8.1c.23,0,.35.11.35.3s-.13.3-.36.3Z"/><path class="cls-1" d="M13.15,5.51h-1.3c-.26,0-.39-.1-.39-.3s.13-.3.38-.3h2.63c.25,0,.38.1.38.3s-.13.3-.37.3H13.15Z"/><path class="cls-1" d="M13.13,3.84h-1.3c-.25,0-.38-.1-.38-.3s.13-.3.37-.3H14.5a.31.31,0,0,1,.34.23.27.27,0,0,1-.14.33.5.5,0,0,1-.21,0H13.13Z"/><path class="cls-1" d="M13.16,6.58h1.32c.23,0,.36.11.36.29s-.13.31-.37.31H11.81c-.23,0-.35-.11-.35-.3s.13-.3.36-.3Z"/></g></g></svg>